<?xml version="1.0" encoding="utf-8"?><!DOCTYPE svg PUBLIC "-//W3C//DTD SVG 1.1//EN" "http://www.w3.org/Graphics/SVG/1.1/DTD/svg11.dtd"><svg version="1.1" xmlns="http://www.w3.org/2000/svg" xmlns:xlink="http://www.w3.org/1999/xlink" width="22.010461788158864" height="28" viewBox="0 0 22.010461788158864 28" data-code="61554" data-tags="plane"><g fill="#444" transform="scale(0.02734375 0.02734375)"><path d="M786.286 91.429q25.143 29.714 6.857 84.571t-61.714 98.286l-92 92 91.429 397.714q2.857 10.857-6.857 18.857l-73.143 54.857q-4 3.429-10.857 3.429-2.286 0-4-0.571-8.571-1.714-12-9.143l-159.429-290.286-148 148 30.286 110.857q2.857 9.714-4.571 17.714l-54.857 54.857q-5.143 5.143-13.143 5.143h-1.143q-8.571-1.143-13.714-7.429l-108-144-144-108q-6.286-4-7.429-13.143-0.571-7.429 5.143-14.286l54.857-55.429q5.143-5.143 13.143-5.143 3.429 0 4.571 0.571l110.857 30.286 148-148-290.286-159.429q-8-4.571-9.714-13.714-1.143-9.143 5.143-15.429l73.143-73.143q8-7.429 17.143-4.571l380 90.857 91.429-91.429q43.429-43.429 98.286-61.714t84.571 6.857z" /></g></svg>